STARTFONT 2.1
COMMENT
COMMENT Converted from OpenType font "Q:\font stuff\winfont\Butterfly.otf" by "otf2bdf 3.0".
COMMENT
FONT -FreeType-Butterfly-Medium-R-Normal--52-520-72-72-P-276-ISO10646-1
SIZE 52 72 72
FONTBOUNDINGBOX 105 60 -24 -20
STARTPROPERTIES 19
FOUNDRY "FreeType"
FAMILY_NAME "Butterfly"
WEIGHT_NAME "Medium"
SLANT "R"
SETWIDTH_NAME "Normal"
ADD_STYLE_NAME ""
PIXEL_SIZE 52
POINT_SIZE 520
RESOLUTION_X 72
RESOLUTION_Y 72
SPACING "P"
AVERAGE_WIDTH 276
CHARSET_REGISTRY "ISO10646"
CHARSET_ENCODING "1"
FONT_ASCENT 38
FONT_DESCENT 18
COPYRIGHT "N/A"
_OTF_FONTFILE "Q:\font stuff\winfont\Butterfly.otf"
_OTF_PSNAME "Butterfly"
ENDPROPERTIES
CHARS 175
STARTCHAR 0020
ENCODING 32
SWIDTH 192 0
DWIDTH 10 0
BBX 0 0 0 0
BITMAP
ENDCHAR
STARTCHAR 0021
ENCODING 33
SWIDTH 307 0
DWIDTH 16 0
BBX 24 33 4 0
BITMAP
000001
000003
000006
00000C
00000C
000018
000030
000020
000060
0000C0
000080
000100
000300
000200
000400
000800
000800
001000
002000
004000
004000
008000
010000
020000
020000
040000
080000
000000
000000
000000
600000
E00000
C00000
ENDCHAR
STARTCHAR 0022
ENCODING 34
SWIDTH 288 0
DWIDTH 15 0
BBX 8 12 21 21
BITMAP
19
1B
33
32
26
24
64
44
48
88
90
10
ENDCHAR
STARTCHAR 0023
ENCODING 35
SWIDTH 250 0
DWIDTH 13 0
BBX 11 11 1 0
BITMAP
0100
0220
0640
0480
1BE0
1100
1200
FF80
2400
4800
8000
ENDCHAR
STARTCHAR 0024
ENCODING 36
SWIDTH 288 0
DWIDTH 15 0
BBX 21 29 0 -5
BITMAP
000008
000008
000010
000060
0001B0
000250
0004A0
000D20
000940
001A00
001C00
001800
001800
001800
001800
007800
085800
109800
211800
421000
423000
442000
484000
308000
1F0000
200000
400000
C00000
800000
ENDCHAR
STARTCHAR 0025
ENCODING 37
SWIDTH 461 0
DWIDTH 24 0
BBX 20 28 3 -7
BITMAP
000C00
001200
006210
00E410
01A420
012840
021180
061F00
042200
084C00
0891C0
0B2240
044440
008880
011080
022100
046100
084200
108400
208800
609000
406000
400000
800000
820000
840000
880000
700000
ENDCHAR
STARTCHAR 0026
ENCODING 38
SWIDTH 653 0
DWIDTH 34 0
BBX 24 26 10 -4
BITMAP
000078
000090
000120
000240
000580
000A00
001C00
01F07C
062183
0C6001
304001
60C001
43FF02
CD81FC
918200
A10400
830800
830800
831000
826000
628000
3F0000
010200
010400
008800
007000
ENDCHAR
STARTCHAR 0027
ENCODING 39
SWIDTH 250 0
DWIDTH 13 0
BBX 6 6 21 25
BITMAP
04
0C
18
20
40
80
ENDCHAR
STARTCHAR 0028
ENCODING 40
SWIDTH 653 0
DWIDTH 34 0
BBX 32 42 18 -6
BITMAP
00000003
0000000C
00000030
00000040
00000180
00000600
00000800
00001000
00002000
0000C000
00018000
00030000
00060000
000C0000
00180000
00300000
00600000
00600000
00C00000
01800000
01800000
03000000
02000000
06000000
04000000
04000000
08000000
08000000
10000000
10000000
10000000
20000000
20000000
20000000
20000000
40000000
40000000
40000000
40000000
40000000
80000000
80000000
ENDCHAR
STARTCHAR 0029
ENCODING 41
SWIDTH 653 0
DWIDTH 34 0
BBX 31 43 12 -6
BITMAP
00000002
00000004
00000004
00000004
00000004
00000004
00000004
00000004
00000004
00000008
00000008
00000008
00000008
00000010
00000010
00000010
00000020
00000020
00000060
00000040
000000C0
00000080
00000180
00000300
00000300
00000600
00000C00
00001C00
00003800
00003000
00006000
0000C000
00018000
00030000
000C0000
00180000
00200000
00C00000
01000000
06000000
08000000
30000000
C0000000
ENDCHAR
STARTCHAR 002A
ENCODING 42
SWIDTH 192 0
DWIDTH 10 0
BBX 7 6 3 27
BITMAP
04
28
28
FE
18
24
ENDCHAR
STARTCHAR 002B
ENCODING 43
SWIDTH 307 0
DWIDTH 16 0
BBX 11 11 5 1
BITMAP
0080
0100
0100
0200
0400
FFE0
0800
0800
1000
2000
2000
ENDCHAR
STARTCHAR 002C
ENCODING 44
SWIDTH 211 0
DWIDTH 11 0
BBX 5 5 2 -3
BITMAP
08
10
20
40
80
ENDCHAR
STARTCHAR 002D
ENCODING 45
SWIDTH 326 0
DWIDTH 17 0
BBX 10 3 7 8
BITMAP
F840
0680
0100
ENDCHAR
STARTCHAR 002E
ENCODING 46
SWIDTH 173 0
DWIDTH 9 0
BBX 3 3 3 -2
BITMAP
60
C0
C0
ENDCHAR
STARTCHAR 002F
ENCODING 47
SWIDTH 365 0
DWIDTH 19 0
BBX 18 33 8 0
BITMAP
000040
000080
000080
000100
000100
000200
000600
000400
000C00
000800
001800
001000
002000
002000
004000
004000
008000
008000
010000
010000
020000
020000
040000
0C0000
080000
180000
100000
300000
200000
600000
400000
C00000
800000
ENDCHAR
STARTCHAR 0030
ENCODING 48
SWIDTH 250 0
DWIDTH 13 0
BBX 13 14 2 0
BITMAP
0030
00C8
0188
0610
0C10
1820
1020
2040
6080
4100
8200
8400
9800
6000
ENDCHAR
STARTCHAR 0031
ENCODING 49
SWIDTH 250 0
DWIDTH 13 0
BBX 10 13 3 1
BITMAP
0040
0080
0100
0300
0200
0C00
1800
0800
1000
2000
4000
4000
8000
ENDCHAR
STARTCHAR 0032
ENCODING 50
SWIDTH 250 0
DWIDTH 13 0
BBX 14 14 1 0
BITMAP
0030
00CC
0304
0444
0488
0910
0660
0080
0300
1C00
2000
4000
C000
3E00
ENDCHAR
STARTCHAR 0033
ENCODING 51
SWIDTH 250 0
DWIDTH 13 0
BBX 19 21 -5 -6
BITMAP
0007E0
000920
003220
002440
002840
001080
000300
000C00
001000
003000
000800
000C00
000800
000800
001800
001000
002000
804000
808000
830000
7C0000
ENDCHAR
STARTCHAR 0034
ENCODING 52
SWIDTH 250 0
DWIDTH 13 0
BBX 18 20 0 -2
BITMAP
000040
000080
000180
000100
000200
000400
000800
001200
002400
004800
004800
019000
022000
044000
084000
308000
FFF000
010000
020000
040000
ENDCHAR
STARTCHAR 0035
ENCODING 53
SWIDTH 250 0
DWIDTH 13 0
BBX 21 22 -6 -6
BITMAP
000180
0001F8
000200
000400
000400
000800
001000
001400
002B00
004100
000100
000300
000300
000600
000400
000C00
001800
003000
804000
818000
420000
3C0000
ENDCHAR
STARTCHAR 0036
ENCODING 54
SWIDTH 250 0
DWIDTH 13 0
BBX 23 23 1 -1
BITMAP
000002
00001C
000060
000180
000200
000C00
001000
006000
009E00
012200
024200
048200
080400
180400
100800
201000
202000
404000
408000
810000
820000
8C0000
700000
ENDCHAR
STARTCHAR 0037
ENCODING 55
SWIDTH 250 0
DWIDTH 13 0
BBX 19 22 -3 -6
BITMAP
001000
002FE0
003020
000040
000080
000100
000200
000400
001800
002000
004000
008000
010000
020000
040000
040000
080000
100000
200000
400000
400000
800000
ENDCHAR
STARTCHAR 0038
ENCODING 56
SWIDTH 250 0
DWIDTH 13 0
BBX 22 21 1 -1
BITMAP
0001FC
000208
000418
000C28
000850
001980
001A00
001C00
003800
00D800
011800
061000
081000
103000
202000
402000
804000
808000
810000
820000
7C0000
ENDCHAR
STARTCHAR 0039
ENCODING 57
SWIDTH 250 0
DWIDTH 13 0
BBX 21 23 -6 -9
BITMAP
000070
000188
000208
000C08
001810
003010
006010
004020
008060
010040
010480
020900
041200
042400
04C800
031000
006000
008000
030000
040000
180000
600000
800000
ENDCHAR
STARTCHAR 003A
ENCODING 58
SWIDTH 230 0
DWIDTH 12 0
BBX 5 8 5 -2
BITMAP
08
18
10
00
00
C0
C0
80
ENDCHAR
STARTCHAR 003B
ENCODING 59
SWIDTH 230 0
DWIDTH 12 0
BBX 9 10 1 -3
BITMAP
0180
0180
0000
0000
0400
0C00
1800
2000
4000
8000
ENDCHAR
STARTCHAR 003C
ENCODING 60
SWIDTH 211 0
DWIDTH 11 0
BBX 10 9 3 1
BITMAP
0040
0380
0C00
7000
8000
6000
1800
0600
0100
ENDCHAR
STARTCHAR 003D
ENCODING 61
SWIDTH 307 0
DWIDTH 16 0
BBX 14 5 3 3
BITMAP
FFFC
0000
0000
0000
FFFC
ENDCHAR
STARTCHAR 003E
ENCODING 62
SWIDTH 211 0
DWIDTH 11 0
BBX 9 9 3 1
BITMAP
4000
3000
0C00
0300
0080
0700
1800
6000
8000
ENDCHAR
STARTCHAR 003F
ENCODING 63
SWIDTH 403 0
DWIDTH 21 0
BBX 26 33 6 0
BITMAP
00000700
000038C0
0000C040
00010040
00020040
000400C0
000810C0
00101080
00202180
00204300
00404600
00408400
00810800
00861000
00486000
00308000
00010000
00060000
00080000
00100000
00600000
00800000
01000000
02000000
04000000
08000000
10000000
10000000
00000000
00000000
40000000
C0000000
80000000
ENDCHAR
STARTCHAR 0040
ENCODING 64
SWIDTH 346 0
DWIDTH 18 0
BBX 16 15 4 -2
BITMAP
0030
03CE
0402
0801
11F9
2331
4622
4C62
8844
98C8
9FF0
8000
C000
6060
3F80
ENDCHAR
STARTCHAR 0041
ENCODING 65
SWIDTH 846 0
DWIDTH 44 0
BBX 55 37 6 -5
BITMAP
00000000000002
0000000000000C
00000000000014
00000000000068
0000000F000090
00000070800110
00000180430220
000006007CFC40
00000801C014C0
00003006802380
00004008806100
00008030804280
00010001008680
007F0001010C80
078CF802020880
18180704041080
201000E8083100
4020003C106200
8040002F20C400
80C00041E08800
808000809FF000
81000301030000
83000C03060000
42003006040000
2200C00C0C0000
140F0018180000
0FF00030104000
04000060304000
040000C0208000
04000100410000
04000200460000
04000400480000
04001800300000
04002000000000
0200C000000000
01870000000000
00780000000000
ENDCHAR
STARTCHAR 0042
ENCODING 66
SWIDTH 846 0
DWIDTH 44 0
BBX 43 37 10 -4
BITMAP
0000000FFF00
0000007000C0
000003800040
000FFC000020
007034000020
0180C4000420
020182001A20
040202002220
080C02004420
101802008460
203004010840
2060040210C0
40C008062080
4180080C4100
830010098200
820020120400
840040340800
8C0040287000
880000578000
900000E0C000
B00001806000
A00001002000
600003003000
40000E3C3000
700074C23000
4C0389027000
83FC1A046000
80003404E000
80002C08C000
800048118000
800090030000
800110060000
4002100C0000
400410180000
201810200000
18600FC00000
078000000000
ENDCHAR
STARTCHAR 0043
ENCODING 67
SWIDTH 538 0
DWIDTH 28 0
BBX 42 37 2 -3
BITMAP
000000001F80
00007F81E040
000180660040
000200180080
000400680100
000800880200
001001080C00
001006083000
00100804C000
002010070000
000030780000
0000EF880000
0001F0080000
000780100000
001B00100000
006601A00000
018C0E600000
020830600000
0C1840900000
103081100000
202101100000
406102100000
404204200000
804408200000
808410200000
808060400000
808080400000
810300800000
410C01000000
217003000000
1F8002000000
010004000000
010008000000
010030000000
008040000000
006180000000
001E00000000
ENDCHAR
STARTCHAR 0044
ENCODING 68
SWIDTH 826 0
DWIDTH 43 0
BBX 50 38 5 -5
BITMAP
0000007F000000
00000780E00000
00003800180000
0000C000040000
00010000020000
00060000011F80
00080000816040
00100007608000
002003D8138000
00600C200C4000
00C03060084000
008040A0184000
01008120184000
03008220284000
02010220484000
06020420C84000
04020420884000
04040441884000
0C04004310C000
08080042108000
08080086208000
0808008C218000
0808010C410000
08100218430000
08100430820000
08080831060000
08081063040000
040820C20C0000
0208C08C180000
01070110300000
00FA0220600000
000105C0C00000
0000FA01800000
7FC03002000000
8038400C000000
80078030000000
603C7FC0000000
1FC00000000000
ENDCHAR
STARTCHAR 0045
ENCODING 69
SWIDTH 557 0
DWIDTH 29 0
BBX 39 37 5 -3
BITMAP
00000007FC
0000003802
000000E002
0007F98002
0018070004
0020070018
00400D0060
0040088380
0080087C00
00001FC000
0000F84000
0007184000
0038084000
00C0044000
03000FF000
0400708000
0803808000
100C008000
2030010000
40607D0000
40C1830000
8186070000
8384050000
8308090000
8610110000
8610210000
4E00410000
4C01830000
2C06020000
1C38040000
0FC00C0000
0C00080000
0400100000
0600600000
0300800000
00C7000000
0038000000
ENDCHAR
STARTCHAR 0046
ENCODING 70
SWIDTH 730 0
DWIDTH 38 0
BBX 58 37 2 -5
BITMAP
000000007FC00780
0000001FFFF81840
000000E003FF2080
000003000007FF00
00000C0000010000
0000300000020000
0000400000040000
0000800000100000
0001000FC0300000
0002003040600000
0004004040400000
0008018040800000
0008020081000000
0010040082000000
0020080086000000
002008010C200000
0040100208200000
0040200218400000
00403FFFB1800000
0040C00FFE000000
0083401060000000
008C4020C0000000
1090804180000000
2060808100000000
4040830200000000
80A08C0600000000
8098B00C00000000
8087401800000000
8080801000000000
8080806000000000
8080808000000000
8080810000000000
4060420000000000
20104C0000000000
1000300400000000
0C01D01800000000
03FE0FE000000000
ENDCHAR
STARTCHAR 0047
ENCODING 71
SWIDTH 615 0
DWIDTH 32 0
BBX 52 52 -3 -18
BITMAP
000000000001E0
00000003801E10
0000001C706010
00000020098010
00000040060020
000000801C0040
00000100240180
00000100C40600
00000201843800
0000000203C000
0000000DFC0000
0000007A040000
000003B0080000
00000C20086000
0000306011A000
0000C0C0124000
00010180264000
00020300448000
00040600490000
00080600890000
00080C01120000
00080C02140000
0008180C280000
00081010300000
00081060600000
00043180400000
0003AE00400000
00007001800000
00002002800000
00002005000000
00002019000000
00002062000000
00001182000000
00000E04000000
00000004000000
00000008000000
00000008100000
00010010600000
00FEFFFF800000
03000020000000
0C000040000000
30000080000000
40000080000000
80000100000000
80000200000000
80000C00000000
80001000000000
80002000000000
8000C000000000
40030000000000
301C0000000000
0FE00000000000
ENDCHAR
STARTCHAR 0048
ENCODING 72
SWIDTH 865 0
DWIDTH 45 0
BBX 63 38 6 -6
BITMAP
0000000001C0001E
0000000007E0003E
0000000018200062
00000000601001C4
0000000080100184
0000001F00200304
0000006280200608
0000018440200C10
0000060440601820
0000180840403040
0000200840C06080
0000401040C0C100
0000801041818200
001FFFF081818C00
01E201E883031000
060400270306E000
18080021FEFD0000
200800220D080000
4010002408100000
8020002810300000
8040003034600000
8040006068400000
80800190D0C00000
80800608A1800000
81801805C1000000
4100600203000000
3303800402000000
0FFC000804300000
0200001004200000
0200002008400000
0200004008800000
0200008011000000
0200010012000000
020006000C000000
0100080000000000
0080300000000000
0040C00000000000
003F000000000000
ENDCHAR
STARTCHAR 0049
ENCODING 73
SWIDTH 826 0
DWIDTH 43 0
BBX 53 37 10 -4
BITMAP
00000000000078
00000000000780
00000000003900
0000000001C600
0000000F060800
000000F0D81000
00000300202000
00000C00E02000
00001001A04000
00006003208800
00008006210800
0001000C410800
00020018421000
003C0030861000
03CBF021042000
0C100FC2084000
303000FA188000
40200085F70000
80400188380000
80C00130600000
80800340400000
81800280800000
81000301800000
41000E03000000
22007602000000
1A078206040000
07F8020C080000
02000208100000
02000310200000
02000120400000
020000C1800000
020001FE000000
02000200000000
01000C00000000
00803000000000
0061C000000000
001E0000000000
ENDCHAR
STARTCHAR 004A
ENCODING 74
SWIDTH 519 0
DWIDTH 27 0
BBX 61 51 -18 -20
BITMAP
00000000000003F8
0000000000003D80
000000000001C600
0000000000060800
0000000000181000
0000000000602000
0000000000804000
0000000002004000
0000000004008000
0000000008010000
0000000010020000
0000000020020000
00000000407C0000
00000000818C0000
00000001820A0000
0000000104120000
0000000208220000
0000000610220000
0000000420440000
0000000420840000
0000000840840000
0000000841080000
0000000883080000
0000001082100000
0000001084200000
000000100C200000
0000001008400000
0000001010800000
0000001031000000
0000000822000000
0000000844000000
00000006D8000000
00000001A0000000
0000000100000000
0000000304000000
0000000608000000
0000000430000000
00FFFF89C0000000
0700007600000000
1800002000000000
2000004000000000
4000008000000000
8000010000000000
8000020000000000
80000C0000000000
8000100000000000
8000600000000000
8001800000000000
4006000000000000
3038000000000000
0FC0000000000000
ENDCHAR
STARTCHAR 004B
ENCODING 75
SWIDTH 807 0
DWIDTH 42 0
BBX 65 37 2 -4
BITMAP
00000001FC00000000
0000003E03FFE00F80
000000C00001003000
00000300000200C000
00000C1F003D818000
000010E080C8420000
0000230043102C0000
00002C004420180000
000010044040300000
000070188080D00000
000088608181100000
000107808106100000
000200010238200000
00FF80020660200000
070C78020410400000
181807840808800000
203000781809000000
40200017300E000000
80600020FFF0000000
80C000406030000000
80800080C020000000
818001008040000000
810006010080000000
430008030180000000
220030060300000000
1A01C0040208000000
07FE00080410000000
060000100C20000000
040000200840000000
040000401080000000
040000801100000000
040003001200000000
020004001C00000000
020008000000000000
010030000000000000
0081C0000000000000
007E00000000000000
ENDCHAR
STARTCHAR 004C
ENCODING 76
SWIDTH 884 0
DWIDTH 46 0
BBX 49 43 11 -12
BITMAP
00000000000F00
00000000003080
00000000004080
00000000008100
00000000010100
001FFF80020200
00E00078040400
03000006040400
0C000001880800
10000000501000
20000000302000
40000000304000
40000000488000
80008000C50000
80010000860000
800200018A0000
80040003120000
40040002620000
40040006820000
20040007020000
1004000C040000
0C040038040000
030401D0040000
00E21E30080000
001DE060100000
00010040100000
0000C080600000
00003101800000
00000FFE000000
00000400000000
7FC00800000000
80303000000000
800CC000000000
40070000000000
3FF98000000000
0000C000000000
00002000000000
00001800000000
00000C00000000
00000300000000
000000C0000000
00000030000000
0000000FE00000
ENDCHAR
STARTCHAR 004D
ENCODING 77
SWIDTH 961 0
DWIDTH 50 0
BBX 66 36 3 -5
BITMAP
000000000000040040
000000000000180080
000000000000280300
000000000000500500
000000020000900A00
0000003DC001201400
000000C04702202800
0000030078E440C800
00000C01C018411000
000010064018822000
000020084028844000
0000C0108049084000
000100008089308000
000A00010109410000
03F7F8010212830000
0C0C07E20223060000
3018001F04C4040000
4010000CFB0C080000
402000101038180000
8040002020C8300000
804000C04110600000
808001008210400000
408006010420C00000
210018020841800000
110060061043000000
0E07800C2083080000
03F800184106100000
020000308204200000
020000608208400000
020000810408800000
020001010811000000
020002013012000000
02000C00C00C000000
010010000000000000
0080E0000000000000
007F00000000000000
ENDCHAR
STARTCHAR 004E
ENCODING 78
SWIDTH 942 0
DWIDTH 49 0
BBX 67 37 8 -3
BITMAP
0000000000000007E0
000000000000801820
000000000003002040
000000000005004000
0000000E000A018000
00000071800A020000
000003807F12040000
00000401C0E2080000
000018064064100000
0000200840A4100000
0000401080A4200000
000080208124400000
000300010224800000
00FE00010449000000
070DC002048A000000
18083C04090C000000
601003E41608000000
4020001BF810000000
806000102010000000
804000204070000000
808000C080A0000000
8180010080A0000000
410006010120000000
210018020240000000
1200E0040240000000
0FFF00080480000000
040000100880000000
040000200880000000
040000401100000000
040000801200000000
040001002200000000
040002002400000000
02000C001800000000
020030000000000000
0100C0000000000000
00C700000000000000
003800000000000000
ENDCHAR
STARTCHAR 004F
ENCODING 79
SWIDTH 673 0
DWIDTH 35 0
BBX 37 37 8 -4
BITMAP
00000000F0
00003FC708
0000C03808
0001003018
0002004818
0004008828
0008010848
0008020590
0010040610
0010087810
0000138820
00006C0820
0007C00820
0038C01040
00C1801040
0301001080
0402002100
1806002100
200C004200
200800C400
4018008400
8010010800
8030021000
8020042000
8060082000
8040304000
8040408000
4081810000
208E020000
1FF0040000
0080080000
0080100000
0100200000
0080400000
0081800000
0046000000
0038000000
ENDCHAR
STARTCHAR 0050
ENCODING 80
SWIDTH 615 0
DWIDTH 32 0
BBX 44 37 8 -3
BITMAP
00000007FF80
000000780040
0001F1800020
000E0E000010
00301C000010
00C062000610
010082001A10
060301002210
080601004220
100801008420
101002010840
202002021080
404002021100
408004042200
41000808C400
830008091800
820010126000
840000248000
880000280000
900000700000
900000C00000
600001800000
200003000000
20000E000000
500034000000
4C01CC000000
83FE18000000
800010000000
800020000000
800040000000
800080000000
800100000000
400200000000
400C00000000
201000000000
1CE000000000
030000000000
ENDCHAR
STARTCHAR 0051
ENCODING 81
SWIDTH 730 0
DWIDTH 38 0
BBX 38 47 12 -14
BITMAP
0000000038
00000000C4
0000000304
00001FCC04
0000E03008
0003006808
0004008410
0018010210
0020020220
00400C0240
0080180280
0100300100
0200600200
0400C20600
0400840A00
0801041200
0802082200
1006102400
100C104400
1018218800
2010420800
2030841000
2021081000
1042102000
10CC206000
0CB0C04000
03C1008000
0182010000
010C020000
0110040000
0160080000
0180100000
0600600000
0A00800000
3103000000
E08C000000
1E70000000
0100000000
00C0000000
0020000000
0010000000
0008000000
0006000000
0003001000
0001802000
0000604000
00001F8000
ENDCHAR
STARTCHAR 0052
ENCODING 82
SWIDTH 769 0
DWIDTH 40 0
BBX 44 45 6 -10
BITMAP
00000007FF80
000000380060
0000F1C00020
000F0E000010
00301A000010
00C022000610
010081001910
020101002110
040201004210
080C01008420
101801008440
203002010880
206002021180
40C004042200
418004044400
410008089800
820010116000
840020178000
880000288000
480000708000
500000C04000
500000804000
200003004000
20000F004000
500036004000
4C01C4008000
43FE08008000
400010008000
800020018000
800040018000
400080010000
400100010000
400200010000
200400010000
101800030000
0C6000030000
038000020000
000000010000
000000010000
000000010000
000000010000
000000010040
000000008080
000000006300
000000001C00
ENDCHAR
STARTCHAR 0053
ENCODING 83
SWIDTH 826 0
DWIDTH 43 0
BBX 50 36 9 -2
BITMAP
000000000001C0
00C00000000240
07380000000440
08060000000880
10000000001080
20000070001100
2000078E002200
20001801002400
20FFE001004800
4701A000805000
2802100080A000
3004080080C000
200C0400818000
60180401010000
50300401070000
902004010A0000
88600001320000
86400002C60000
81C00007040000
80A0007C0C0000
819FFF88080000
81000010180000
81000020100000
41000040300000
21000080200000
11000100400000
0A000600800000
07001800800000
01C1E001000000
013E0002000000
01000004000000
00800008000000
00800030000000
004000C0000000
00300300000000
000F3C00000000
ENDCHAR
STARTCHAR 0054
ENCODING 84
SWIDTH 711 0
DWIDTH 37 0
BBX 58 38 2 -5
BITMAP
0000000000000780
00000003FF001840
0000003C00FC2040
000000C00007E080
000003000000BF00
00000C0000010000
0000300000020000
0000400000040000
0000800380080000
0001000C40100000
0002003040200000
000400C040400000
0008010040800000
0010020041000000
0010040081000000
0020040082000000
0020080104000000
004010020C000000
0040100218000000
0040200410000000
0040400820000000
0040401060000000
00404020C0000000
0040804180000000
3040808100000000
4040830300000000
4020840600000000
801CB80C00000000
8003C01800000000
8000803000000000
8000806000000000
800080C000000000
8000810000000000
4000420000000000
20004C0000000000
1000300400000000
0801F00800000000
07FE0FF000000000
ENDCHAR
STARTCHAR 0055
ENCODING 85
SWIDTH 788 0
DWIDTH 41 0
BBX 44 45 9 -12
BITMAP
000007F80000
000018060000
0000E0020000
000300010000
000C00010000
001000010000
00200F810070
00C0708101A0
018080810220
030300820440
060400820440
0C0800840880
081001081100
10200F982100
104032702200
2080C4604400
208108C08800
410009C08800
420013411000
820026412000
840044824000
840188868000
880211048000
4804210D0000
4818620A0000
306042140000
0F8084180000
100188300000
100110300000
100210600000
100220400000
100241C00000
100482C00000
100504800000
080608800000
041A30800000
03E1C0800000
000000800000
000000800000
000000800000
000000800800
000000801000
000000402000
00000020C000
0000001F0000
ENDCHAR
STARTCHAR 0056
ENCODING 86
SWIDTH 634 0
DWIDTH 33 0
BBX 53 36 9 -2
BITMAP
00007FC07801F0
00038031880608
000C000A081808
00300004102010
00C0001C204010
01800014408000
0300C024810000
06073045020000
0C080886040000
0810089C080000
102009E4100000
30400B08200000
20001F08400000
40007210800000
40019611800000
40022421000000
800C4C22000000
8010CC44000000
80209888000000
80211910000000
40421220000000
404C1440000000
20903880000000
18603100000000
07806200000000
0041C400000000
003E4800000000
00009000000000
0000A000000000
00014000000000
00018000000000
00030000000000
00060000000000
00040000000000
00080000000000
00100000000000
ENDCHAR
STARTCHAR 0057
ENCODING 87
SWIDTH 1019 0
DWIDTH 53 0
BBX 61 36 20 -2
BITMAP
0000FFC0780000F8
0007003188000308
0018000E08000C08
0020000810001008
00C0001420002010
0180002440004010
0200C02480008000
040730470E010000
0818108C32020000
182009B442040000
104009C882080000
2040170904100000
20001A0908200000
4000761210400000
4001A41220800000
80062C2441000000
80084C4482000000
8010884904000000
8021188A08000000
8022191C10000000
8044121020000000
4088343040000000
2090282080000000
18E030E100000000
0780614200000000
0043C24400000000
003C448800000000
0000889800000000
0000B09000000000
0001412000000000
0002814000000000
0003028000000000
0006030000000000
000C020000000000
0008040000000000
0010080000000000
ENDCHAR
STARTCHAR 0058
ENCODING 88
SWIDTH 826 0
DWIDTH 43 0
BBX 59 38 9 -4
BITMAP
0000000180000080
0000001E78000F40
000000E004001020
0000030004006000
00000C0004008000
0000100002010000
0000600002060000
0000803F04080000
000100C104100000
0002010104200000
0004060104400000
000808020C800000
001010020B000000
002020041C000000
0020400418000000
0040800810000000
0041001030000000
00820010E0000000
0082002160000000
0104004240000000
01080084C0000000
0108010880000000
0110021080000000
01100C2180000000
00A0104100000000
00A0608300000000
0061810204000000
005E060208000000
0240080210000000
1C4010C410000000
2040208420000000
4040C10440000000
8041020580000000
8046040200000000
C028180000000000
4030200000000000
3BD8C00000000000
0407000000000000
ENDCHAR
STARTCHAR 0059
ENCODING 89
SWIDTH 769 0
DWIDTH 40 0
BBX 49 52 5 -18
BITMAP
00000003000000
0000007CE00000
00000180100000
00000E00080000
00001000080000
00006000080000
00008000080100
0001007E080280
00020182080500
000C0602080900
00080802101200
00103004101200
00204004202400
00608018404800
004080EEC09000
00810311809000
00820423012000
01040847014000
0104008D028000
02080109050000
02080212050000
021004220A0000
02100862140000
022010C4180000
02206084300000
01218108200000
00A60208400000
00780210C00000
00400421800000
00200442800000
0020048D000000
00200511000000
001006E2000000
00101B02000000
000E6004000000
00018004000000
00000008080000
00038008300000
00FC7FF1C00000
0700003E000000
08000020000000
30000040000000
40000080000000
40000100000000
80000200000000
80000C00000000
80001000000000
80006000000000
40018000000000
20060000000000
1EF80000000000
01000000000000
ENDCHAR
STARTCHAR 005A
ENCODING 90
SWIDTH 730 0
DWIDTH 38 0
BBX 42 37 10 -6
BITMAP
0000FFFC00C0
00070003FF00
003800000400
004000001800
0180180F2000
0200E630C000
04010200C000
080602012000
100802022000
201004042000
202004082000
404004102000
404008202000
408010402000
808020802000
810021004000
810042004000
820184004000
820208008000
420410010000
421820010000
32E040020000
0F0080040000
020100080000
010200100000
010400200000
008800C00000
007003000000
00587C000000
008780000000
010000000000
07FC00000000
180380000000
0000C0000000
000030000000
00001E0C0000
000003F00000
ENDCHAR
STARTCHAR 005B
ENCODING 91
SWIDTH 346 0
DWIDTH 18 0
BBX 21 46 11 -13
BITMAP
0001F8
0003F8
000300
000300
000600
000600
000600
000C00
000C00
000C00
001800
001800
001800
003000
003000
003000
006000
006000
004000
00C000
00C000
008000
018000
018000
010000
030000
030000
060000
060000
060000
0C0000
0C0000
080000
180000
180000
100000
300000
300000
200000
600000
600000
400000
C00000
C00000
800000
700000
ENDCHAR
STARTCHAR 005C
ENCODING 92
SWIDTH 769 0
DWIDTH 40 0
BBX 18 33 22 0
BITMAP
800000
800000
400000
400000
200000
200000
100000
100000
080000
080000
040000
060000
020000
030000
010000
018000
008000
00C000
004000
002000
002000
001000
001000
000800
000800
000400
000400
000200
000200
000100
000180
000080
0000C0
ENDCHAR
STARTCHAR 005D
ENCODING 93
SWIDTH 346 0
DWIDTH 18 0
BBX 20 46 7 -13
BITMAP
0001F0
0001F0
000030
000020
000020
000060
000040
000040
0000C0
000080
000080
000180
000100
000100
000300
000200
000200
000600
000400
000C00
000800
000800
001800
001000
001000
003000
002000
002000
006000
004000
004000
00C000
008000
008000
018000
010000
030000
030000
020000
060000
060000
040000
0C0000
0C0000
080000
F00000
ENDCHAR
STARTCHAR 005E
ENCODING 94
SWIDTH 365 0
DWIDTH 19 0
BBX 5 4 11 18
BITMAP
08
18
68
88
ENDCHAR
STARTCHAR 005F
ENCODING 95
SWIDTH 365 0
DWIDTH 19 0
BBX 26 1 0 -7
BITMAP
FFFFFFC0
ENDCHAR
STARTCHAR 0060
ENCODING 96
SWIDTH 153 0
DWIDTH 8 0
BBX 5 3 3 18
BITMAP
C0
70
18
ENDCHAR
STARTCHAR 0061
ENCODING 97
SWIDTH 230 0
DWIDTH 12 0
BBX 16 15 -1 2
BITMAP
001C
0035
0042
0086
030C
0408
0810
1030
1063
20C2
4184
4298
8520
5940
2080
ENDCHAR
STARTCHAR 0062
ENCODING 98
SWIDTH 192 0
DWIDTH 10 0
BBX 27 33 -2 1
BITMAP
000000E0
00000120
00000240
00000440
00000880
00001100
07FC2200
38002400
40004800
80009000
80016000
80018000
80030000
40040000
203C0000
1FC80000
00100000
00100000
00260000
004A0000
00920000
00A40000
01440000
02480000
02500000
04A00000
08C60000
08580000
10A00000
21000000
22000000
24000000
18000000
ENDCHAR
STARTCHAR 0063
ENCODING 99
SWIDTH 173 0
DWIDTH 9 0
BBX 12 14 1 0
BITMAP
0030
00D0
0130
0600
0C00
1800
3000
2020
4040
8080
8100
8200
8C00
7000
ENDCHAR
STARTCHAR 0064
ENCODING 100
SWIDTH 230 0
DWIDTH 12 0
BBX 24 32 -1 0
BITMAP
00003F
000041
000081
000101
000201
000401
000402
000802
000802
001004
001004
000008
000010
000010
000020
000040
000040
001C80
002300
00C200
018200
030400
060800
0C1000
082000
104000
208000
210000
420000
840000
980000
600000
ENDCHAR
STARTCHAR 0065
ENCODING 101
SWIDTH 173 0
DWIDTH 9 0
BBX 12 17 1 -3
BITMAP
0030
00F0
0190
0320
0440
0980
1A00
3C00
2000
4030
4040
8080
8100
8200
8400
5800
2000
ENDCHAR
STARTCHAR 0066
ENCODING 102
SWIDTH 134 0
DWIDTH 7 0
BBX 38 49 -14 -18
BITMAP
000000000C
0000000014
0000000064
0000000088
0000000090
0000000130
0000FF8220
0003000440
000C000980
0008000A00
0010001400
0010002800
0010007000
000800C000
0004078000
0003F90000
0000010000
00000E0000
0000160000
00002E0000
00000A0000
0000120000
0000320000
0000240000
0000480000
0000900000
0000900000
0001200000
0002400000
0006800000
0005000000
000A000000
001C000000
0018000000
0020000000
0060000000
0040000000
0080000000
0100000000
0200000000
0200000000
0400000000
0800000000
1000000000
1000000000
2000000000
4000000000
8000000000
8000000000
ENDCHAR
STARTCHAR 0067
ENCODING 103
SWIDTH 230 0
DWIDTH 12 0
BBX 28 32 -12 -17
BITMAP
000000E0
00000310
00000C20
00001020
000020A0
0000C100
00008200
00010420
00020840
00061080
00043100
00086200
0008A400
00094800
00065000
0000A000
0000C000
00008000
00010000
00020000
000E0000
00340000
00440000
01880000
02100000
04200000
18200000
20400000
40800000
83000000
84000000
58000000
ENDCHAR
STARTCHAR 0068
ENCODING 104
SWIDTH 230 0
DWIDTH 12 0
BBX 27 32 -3 0
BITMAP
000000E0
00000120
00000220
00000440
00000880
00601100
0F9C2200
30004400
40004800
80009000
80016000
80018000
80020000
400E0000
30740000
0F880000
00080000
00138000
002C8000
00708000
00610000
00C10000
01820000
01040000
02084000
04108000
08110000
08220000
10440000
20880000
00900000
00600000
ENDCHAR
STARTCHAR 0069
ENCODING 105
SWIDTH 96 0
DWIDTH 5 0
BBX 13 20 0 0
BITMAP
0008
0018
0000
0000
0000
0080
0100
0200
0400
0400
0800
1000
1180
2100
4200
4400
8400
8800
B000
C000
ENDCHAR
STARTCHAR 006A
ENCODING 106
SWIDTH 115 0
DWIDTH 6 0
BBX 32 38 -18 -18
BITMAP
00000001
00000003
00000000
0000000C
00000034
00000044
000000B4
00000028
00000048
00000090
00000120
00000220
00000240
00000480
00000900
00001200
00002400
00002800
00005000
00006000
0000C000
00010000
00030000
000E0000
00120000
00620000
00840000
01080000
06080000
08100000
10200000
20600000
60400000
40800000
81000000
86000000
88000000
70000000
ENDCHAR
STARTCHAR 006B
ENCODING 107
SWIDTH 211 0
DWIDTH 11 0
BBX 27 33 -1 0
BITMAP
000000C0
00000120
00000640
00000840
00001080
00002100
00002200
00004400
00008800
00011000
00016000
00028000
00050000
00060000
00180000
00700000
00900000
01200000
02438000
04848000
08880000
09100000
0A200000
0EC80000
04500000
08200000
17E30000
10440000
20840000
41880000
81100000
82600000
01800000
ENDCHAR
STARTCHAR 006C
ENCODING 108
SWIDTH 96 0
DWIDTH 5 0
BBX 27 32 -2 1
BITMAP
000000E0
00000320
00000440
00000880
00001100
03F81200
1C042400
60004800
80009000
8000A000
80014000
80038000
80040000
401C0000
33E80000
0C100000
00100000
00200000
00400000
00C00000
00800000
01000000
02000000
02000000
04200000
08400000
10800000
10800000
21000000
22000000
24000000
18000000
ENDCHAR
STARTCHAR 006D
ENCODING 109
SWIDTH 423 0
DWIDTH 22 0
BBX 23 17 3 -3
BITMAP
018000
078E1C
049264
08A284
114304
218608
430C10
020820
041040
0830C6
082188
104310
208220
218440
410480
820500
000200
ENDCHAR
STARTCHAR 006E
ENCODING 110
SWIDTH 307 0
DWIDTH 16 0
BBX 17 16 3 -3
BITMAP
018000
078F00
0C9100
08A100
114200
218400
430400
020800
041080
082100
084200
108400
208800
611000
422000
81C000
ENDCHAR
STARTCHAR 006F
ENCODING 111
SWIDTH 211 0
DWIDTH 11 0
BBX 14 14 0 0
BITMAP
001C
0024
00C4
0184
0708
0A10
1220
2424
4248
43B0
82C0
8400
9800
6000
ENDCHAR
STARTCHAR 0070
ENCODING 112
SWIDTH 211 0
DWIDTH 11 0
BBX 38 35 -24 -18
BITMAP
0000000078
0000000184
0000000204
00000004E4
0000000108
0000000208
0000000410
0000000810
0000000820
0000001040
00000020C0
0000004080
0000004100
0000008200
0000008C00
0000019000
0000026000
0000020000
0000040000
0000080000
0000080000
0000100000
0000200000
0000200000
0000400000
0000800000
0001000000
0001000000
0002000000
0004000000
0008000000
0030000000
0040000000
8180000000
7E00000000
ENDCHAR
STARTCHAR 0071
ENCODING 113
SWIDTH 230 0
DWIDTH 12 0
BBX 23 32 -7 -19
BITMAP
000008
00003E
0000C2
000182
00020A
000410
000820
0011E0
002260
004CA0
004120
008340
010640
011C80
012D00
00CA00
001400
002800
003000
006000
00C000
008000
010000
020000
060000
040000
080000
100000
200000
200000
400000
800000
ENDCHAR
STARTCHAR 0072
ENCODING 114
SWIDTH 192 0
DWIDTH 10 0
BBX 10 20 3 1
BITMAP
0080
0080
0100
0200
0400
0400
0BC0
10C0
2080
4100
C200
8400
0840
1880
3080
2100
4200
8400
5800
2000
ENDCHAR
STARTCHAR 0073
ENCODING 115
SWIDTH 230 0
DWIDTH 12 0
BBX 15 21 1 1
BITMAP
0002
0002
0004
0008
0010
0010
0030
0060
00A0
0120
0E20
1520
2120
4140
4240
84C0
8080
8100
8200
4C00
3000
ENDCHAR
STARTCHAR 0074
ENCODING 116
SWIDTH 96 0
DWIDTH 5 0
BBX 15 24 0 1
BITMAP
0002
0004
0004
0008
0010
0010
0020
0040
0040
03E0
0100
0200
0200
0400
0800
1000
1080
2100
4200
4200
8400
8800
9000
E000
ENDCHAR
STARTCHAR 0075
ENCODING 117
SWIDTH 307 0
DWIDTH 16 0
BBX 16 15 4 -1
BITMAP
0781
0882
1084
210C
4208
8410
0820
1062
3042
2084
4308
8510
8920
9140
6080
ENDCHAR
STARTCHAR 0076
ENCODING 118
SWIDTH 288 0
DWIDTH 15 0
BBX 14 14 4 0
BITMAP
030C
0514
1924
2248
4290
8490
0920
1144
2188
4130
82C0
8400
9800
6000
ENDCHAR
STARTCHAR 0077
ENCODING 119
SWIDTH 403 0
DWIDTH 21 0
BBX 20 15 4 0
BITMAP
078130
088250
108490
210D20
420920
841140
082240
106280
304310
208320
430240
850D80
891000
912000
60C000
ENDCHAR
STARTCHAR 0078
ENCODING 120
SWIDTH 288 0
DWIDTH 15 0
BBX 22 17 0 -3
BITMAP
000600
000E1C
001224
002248
004480
008500
074600
084400
108800
209820
413040
405080
819100
822200
842400
583800
200000
ENDCHAR
STARTCHAR 0079
ENCODING 121
SWIDTH 288 0
DWIDTH 15 0
BBX 27 33 -8 -20
BITMAP
00003020
0000C840
00011040
00021080
00042180
00084300
00104200
00108400
00010840
00020840
00041080
00082100
00084200
0010C400
00138800
000C9000
00012000
0001C000
00030000
00060000
000C0000
00340000
00480000
01900000
02100000
0C200000
10400000
20800000
41000000
82000000
84000000
98000000
60000000
ENDCHAR
STARTCHAR 007A
ENCODING 122
SWIDTH 211 0
DWIDTH 11 0
BBX 27 34 -12 -20
BITMAP
00000180
000007C0
00000C40
00001080
00002080
00004080
00008100
00018200
00010200
00000420
00001840
00006080
00038100
00004200
00002400
00002800
00003000
00002000
0000E000
00034000
00044000
00188000
00208000
00C10000
01020000
06040000
08080000
10100000
60200000
40400000
81800000
02000000
8C000000
70000000
ENDCHAR
STARTCHAR 007B
ENCODING 123
SWIDTH 288 0
DWIDTH 15 0
BBX 13 47 3 -14
BITMAP
0078
00C0
0180
0300
0300
0200
0600
0600
0600
0600
0600
0600
0600
0600
0600
0600
0600
0600
0600
0400
0C00
1800
6000
8000
7000
1800
0C00
0C00
0600
0600
0600
0600
0600
0600
0600
0600
0600
0600
0600
0600
0600
0200
0300
0100
0180
0040
0030
ENDCHAR
STARTCHAR 007C
ENCODING 124
SWIDTH 115 0
DWIDTH 6 0
BBX 1 42 4 -9
BITMAP
80
80
80
80
80
80
80
80
80
80
80
80
80
80
80
80
80
80
80
80
80
80
80
80
80
80
80
80
80
80
80
80
80
80
80
80
80
80
80
80
80
80
ENDCHAR
STARTCHAR 007D
ENCODING 125
SWIDTH 288 0
DWIDTH 15 0
BBX 12 47 4 -14
BITMAP
E000
3000
1800
0C00
0C00
0600
0600
0600
0600
0600
0600
0600
0600
0600
0600
0600
0600
0600
0600
0200
0300
0180
0060
0010
0060
0180
0300
0300
0600
0600
0600
0600
0600
0600
0600
0600
0600
0600
0600
0600
0600
0400
0C00
0800
1800
2000
4000
ENDCHAR
STARTCHAR 007E
ENCODING 126
SWIDTH 403 0
DWIDTH 21 0
BBX 8 2 11 17
BITMAP
F0
0F
ENDCHAR
STARTCHAR 00A0
ENCODING 160
SWIDTH 480 0
DWIDTH 25 0
BBX 0 0 0 0
BITMAP
ENDCHAR
STARTCHAR 00A2
ENCODING 162
SWIDTH 173 0
DWIDTH 9 0
BBX 12 16 1 -2
BITMAP
0020
0050
00D0
03A0
0480
0900
1100
3200
2420
4440
8880
8900
9200
9400
B800
6000
ENDCHAR
STARTCHAR 00A3
ENCODING 163
SWIDTH 442 0
DWIDTH 23 0
BBX 29 21 -3 -1
BITMAP
000000F8
00000108
00000208
00000408
00000808
00001308
00001408
00002810
00004810
00005020
0000A040
007FEE80
03813100
02022200
02062400
00041800
00080000
00100000
7FE00000
80702000
7F8FC000
ENDCHAR
STARTCHAR 00A8
ENCODING 168
SWIDTH 403 0
DWIDTH 21 0
BBX 7 2 11 16
BITMAP
42
C6
ENDCHAR
STARTCHAR 00AB
ENCODING 171
SWIDTH 269 0
DWIDTH 14 0
BBX 10 8 9 13
BITMAP
0400
08C0
1100
6600
8C00
4400
4400
0200
ENDCHAR
STARTCHAR 00B4
ENCODING 180
SWIDTH 326 0
DWIDTH 17 0
BBX 4 3 11 17
BITMAP
30
60
80
ENDCHAR
STARTCHAR 00B6
ENCODING 182
SWIDTH 500 0
DWIDTH 26 0
BBX 23 28 5 -7
BITMAP
000060
0001A0
000220
000240
000440
000580
000A1E
001C20
00E840
030880
0C1900
101A00
201C00
401800
801800
801800
801800
807800
809000
811000
421000
3C2000
002000
004000
008000
808000
430000
3C0000
ENDCHAR
STARTCHAR 00B7
ENCODING 183
SWIDTH 211 0
DWIDTH 11 0
BBX 6 7 4 -8
BITMAP
20
40
7C
04
04
0C
F8
ENDCHAR
STARTCHAR 00BB
ENCODING 187
SWIDTH 250 0
DWIDTH 13 0
BBX 11 7 2 13
BITMAP
0080
0880
0440
0E60
1180
6200
8400
ENDCHAR
STARTCHAR 00C0
ENCODING 192
SWIDTH 846 0
DWIDTH 44 0
BBX 57 43 6 -6
BITMAP
0000000000000400
0000000000000E00
0000000000000300
0000000000000080
0000000000000000
0000000000000000
0000000000000200
0000000000000C00
0000000000001400
0000000000006800
0000000F00009000
0000007080011000
0000018043022000
000006007CFC4000
00000801C014C000
0000300680238000
0000400880610000
0000803080428000
0001000100868000
007F0001010C8000
078CF80202088000
1818070404108000
201000E808310000
4020003C10620000
8040002F20C40000
80C00041E0880000
808000809FF00000
8100030103000000
83000C0306000000
4200300604000000
2200C00C0C000000
140F001818000000
0FF0003010400000
0400006030400000
040000C020800000
0400010041000000
0400020046000000
0400040048000000
0400180030000000
0400200000000000
0200C00000000000
0187000000000000
0078000000000000
ENDCHAR
STARTCHAR 00C1
ENCODING 193
SWIDTH 846 0
DWIDTH 44 0
BBX 59 43 6 -5
BITMAP
0000000000000020
0000000000000060
0000000000000080
0000000000000000
0000000000000000
0000000000000000
0000000000000200
0000000000000C00
0000000000001400
0000000000006800
0000000F00009000
0000007080011000
0000018043022000
000006007CFC4000
00000801C014C000
0000300680238000
0000400880610000
0000803080428000
0001000100868000
007F0001010C8000
078CF80202088000
1818070404108000
201000E808310000
4020003C10620000
8040002F20C40000
80C00041E0880000
808000809FF00000
8100030103000000
83000C0306000000
4200300604000000
2200C00C0C000000
140F001818000000
0FF0003010400000
0400006030400000
040000C020800000
0400010041000000
0400020046000000
0400040048000000
0400180030000000
0400200000000000
0200C00000000000
0187000000000000
0078000000000000
ENDCHAR
STARTCHAR 00C2
ENCODING 194
SWIDTH 846 0
DWIDTH 44 0
BBX 58 44 6 -5
BITMAP
0000000000000040
00000000000000C0
0000000000000340
0000000000000C40
0000000000000000
0000000000000000
0000000000000000
0000000000000200
0000000000000C00
0000000000001400
0000000000006800
0000000F00009000
0000007080011000
0000018043022000
000006007CFC4000
00000801C014C000
0000300680238000
0000400880610000
0000803080428000
0001000100868000
007F0001010C8000
078CF80202088000
1818070404108000
201000E808310000
4020003C10620000
8040002F20C40000
80C00041E0880000
808000809FF00000
8100030103000000
83000C0306000000
4200300604000000
2200C00C0C000000
140F001818000000
0FF0003010400000
0400006030400000
040000C020800000
0400010041000000
0400020046000000
0400040048000000
0400180030000000
0400200000000000
0200C00000000000
0187000000000000
0078000000000000
ENDCHAR
STARTCHAR 00C3
ENCODING 195
SWIDTH 846 0
DWIDTH 44 0
BBX 60 41 6 -5
BITMAP
0000000000000F90
0000000000000060
0000000000000000
0000000000000000
0000000000000200
0000000000000C00
0000000000001400
0000000000006800
0000000F00009000
0000007080011000
0000018043022000
000006007CFC4000
00000801C014C000
0000300680238000
0000400880610000
0000803080428000
0001000100868000
007F0001010C8000
078CF80202088000
1818070404108000
201000E808310000
4020003C10620000
8040002F20C40000
80C00041E0880000
808000809FF00000
8100030103000000
83000C0306000000
4200300604000000
2200C00C0C000000
140F001818000000
0FF0003010400000
0400006030400000
040000C020800000
0400010041000000
0400020046000000
0400040048000000
0400180030000000
0400200000000000
0200C00000000000
0187000000000000
0078000000000000
ENDCHAR
STARTCHAR 00C4
ENCODING 196
SWIDTH 846 0
DWIDTH 44 0
BBX 60 42 6 -6
BITMAP
0000000000000410
0000000000000C30
0000000000000820
0000000000000000
0000000000000000
0000000000000200
0000000000000C00
0000000000001400
0000000000006800
0000000F00009000
0000007080011000
0000018043022000
000006007CFC4000
00000801C014C000
0000300680238000
0000400880610000
0000803080428000
0001000100868000
007F0001010C8000
078CF80202088000
1818070404108000
201000E808310000
4020003C10620000
8040002F20C40000
80C00041E0880000
808000809FF00000
8100030103000000
83000C0306000000
4200300604000000
2200C00C0C000000
140F001818000000
0FF0003010400000
0400006030400000
040000C020800000
0400010041000000
0400020046000000
0400040048000000
0400180030000000
0400200000000000
0200C00000000000
0187000000000000
0078000000000000
ENDCHAR
STARTCHAR 00C5
ENCODING 197
SWIDTH 846 0
DWIDTH 44 0
BBX 60 45 6 -6
BITMAP
0000000000000020
00000000000000D0
0000000000000110
0000000000000120
0000000000000240
0000000000000180
0000000000000000
0000000000000000
0000000000000200
0000000000000C00
0000000000001400
0000000000006800
0000000F00009000
0000007080011000
0000018043022000
000006007CFC4000
00000801C014C000
0000300680238000
0000400880610000
0000803080428000
0001000100868000
007F0001010C8000
078CF80202088000
1818070404108000
201000E808310000
4020003C10620000
8040002F20C40000
80C00041E0880000
808000809FF00000
8100030103000000
83000C0306000000
4200300604000000
2200C00C0C000000
140F001818000000
0FF0003010400000
0400006030400000
040000C020800000
0400010041000000
0400020046000000
0400040048000000
0400180030000000
0400200000000000
0200C00000000000
0187000000000000
0078000000000000
ENDCHAR
STARTCHAR 00C6
ENCODING 198
SWIDTH 1153 0
DWIDTH 60 0
BBX 71 37 6 -4
BITMAP
000000000000010FF8
000000000000063006
0000000000001CC002
000000000000270004
0000000E00004E000C
0000007180009C0030
0000018080011C00C0
000006007FFA380F00
00000801C00E707000
000030068011700000
000040088020F00000
000180308041D00000
000200010083580000
007F8002010647E000
07FFF802020C5FE000
1E083F840418600000
301001E80833800000
4030003C303D000000
806000276072000000
804000C1F0CCFC0000
808001018FB3020000
810002030304010000
83000C060608010000
8200300C0610010000
6601C0080C10010000
1C3E00100C20030000
07C000200820030000
040000401800020000
0C0000801800060000
0800010018000C0000
080006001800080000
040008000800100000
040010000C00200000
040060000400C00000
020180000201000000
018E000001FE000000
007000000000000000
ENDCHAR
STARTCHAR 00C7
ENCODING 199
SWIDTH 538 0
DWIDTH 28 0
BBX 42 44 2 -10
BITMAP
000000001F80
00007F81E040
000180660040
000200180080
000400680100
000800880200
001001080C00
001006083000
00100804C000
002010070000
000030780000
0000EF880000
0001F0080000
000780100000
001B00100000
006601A00000
018C0E600000
020830600000
0C1840900000
103081100000
202101100000
406102100000
404204200000
804408200000
808410200000
808060400000
808080400000
810300800000
410C01000000
217003000000
1F8002000000
010004000000
010008000000
010030000000
008040000000
006180000000
003E00000000
004000000000
007800000000
000C00000000
000400000000
000C00000000
01B800000000
004000000000
ENDCHAR
STARTCHAR 00C8
ENCODING 200
SWIDTH 557 0
DWIDTH 29 0
BBX 39 43 5 -5
BITMAP
0000000020
0000000030
0000000018
0000000000
0000000000
0000000000
00000007FC
0000003802
000000E002
0007F98002
0018070004
0020070018
00400D0060
0040088380
0080087C00
00001FC000
0000F84000
0007184000
0038084000
00C0044000
03000FF000
0400708000
0803808000
100C008000
2030010000
40607D0000
40C1830000
8186070000
8384050000
8308090000
8610110000
8610210000
4E00410000
4C01830000
2C06020000
1C38040000
0FC00C0000
0C00080000
0400100000
0600600000
0300800000
00C7000000
0038000000
ENDCHAR
STARTCHAR 00C9
ENCODING 201
SWIDTH 557 0
DWIDTH 29 0
BBX 41 43 5 -4
BITMAP
000000000080
000000000180
000000000200
000000000400
000000000000
000000000000
00000007FC00
000000380200
000000E00200
0007F9800200
001807000400
002007001800
00400D006000
004008838000
0080087C0000
00001FC00000
0000F8400000
000718400000
003808400000
00C004400000
03000FF00000
040070800000
080380800000
100C00800000
203001000000
40607D000000
40C183000000
818607000000
838405000000
830809000000
861011000000
861021000000
4E0041000000
4C0183000000
2C0602000000
1C3804000000
0FC00C000000
0C0008000000
040010000000
060060000000
030080000000
00C700000000
003800000000
ENDCHAR
STARTCHAR 00CA
ENCODING 202
SWIDTH 557 0
DWIDTH 29 0
BBX 39 44 5 -4
BITMAP
0000000002
000000000E
0000000012
0000000062
0000000000
0000000000
0000000000
00000007FC
0000003802
000000E002
0007F98002
0018070004
0020070018
00400D0060
0040088380
0080087C00
00001FC000
0000F84000
0007184000
0038084000
00C0044000
03000FF000
0400708000
0803808000
100C008000
2030010000
40607D0000
40C1830000
8186070000
8384050000
8308090000
8610110000
8610210000
4E00410000
4C01830000
2C06020000
1C38040000
0FC00C0000
0C00080000
0400100000
0600600000
0300800000
00C7000000
0038000000
ENDCHAR
STARTCHAR 00CB
ENCODING 203
SWIDTH 557 0
DWIDTH 29 0
BBX 41 42 5 -5
BITMAP
000000000080
000000002180
000000002100
000000000000
000000000000
00000007FC00
000000380200
000000E00200
0007F9800200
001807000400
002007001800
00400D006000
004008838000
0080087C0000
00001FC00000
0000F8400000
000718400000
003808400000
00C004400000
03000FF00000
040070800000
080380800000
100C00800000
203001000000
40607D000000
40C183000000
818607000000
838405000000
830809000000
861011000000
861021000000
4E0041000000
4C0183000000
2C0602000000
1C3804000000
0FC00C000000
0C0008000000
040010000000
060060000000
030080000000
00C700000000
003800000000
ENDCHAR
STARTCHAR 00CC
ENCODING 204
SWIDTH 826 0
DWIDTH 43 0
BBX 54 42 10 -4
BITMAP
00000000000070
00000000000018
00000000000004
00000000000000
00000000000000
00000000000078
00000000000780
00000000003900
0000000001C600
0000000F060800
000000F0D81000
00000300202000
00000C00E02000
00001001A04000
00006003208800
00008006210800
0001000C410800
00020018421000
003C0030861000
03CBF021042000
0C100FC2084000
303000FA188000
40200085F70000
80400188380000
80C00130600000
80800340400000
81800280800000
81000301800000
41000E03000000
22007602000000
1A078206040000
07F8020C080000
02000208100000
02000310200000
02000120400000
020000C1800000
020001FE000000
02000200000000
01000C00000000
00803000000000
0061C000000000
001E0000000000
ENDCHAR
STARTCHAR 00CD
ENCODING 205
SWIDTH 826 0
DWIDTH 43 0
BBX 56 43 10 -4
BITMAP
00000000000003
00000000000006
0000000000000C
00000000000010
00000000000000
00000000000000
00000000000078
00000000000780
00000000003900
0000000001C600
0000000F060800
000000F0D81000
00000300202000
00000C00E02000
00001001A04000
00006003208800
00008006210800
0001000C410800
00020018421000
003C0030861000
03CBF021042000
0C100FC2084000
303000FA188000
40200085F70000
80400188380000
80C00130600000
80800340400000
81800280800000
81000301800000
41000E03000000
22007602000000
1A078206040000
07F8020C080000
02000208100000
02000310200000
02000120400000
020000C1800000
020001FE000000
02000200000000
01000C00000000
00803000000000
0061C000000000
001E0000000000
ENDCHAR
STARTCHAR 00CE
ENCODING 206
SWIDTH 826 0
DWIDTH 43 0
BBX 55 44 10 -4
BITMAP
00000000000002
0000000000000E
00000000000012
00000000000062
00000000000000
00000000000000
00000000000000
00000000000078
00000000000780
00000000003900
0000000001C600
0000000F060800
000000F0D81000
00000300202000
00000C00E02000
00001001A04000
00006003208800
00008006210800
0001000C410800
00020018421000
003C0030861000
03CBF021042000
0C100FC2084000
303000FA188000
40200085F70000
80400188380000
80C00130600000
80800340400000
81800280800000
81000301800000
41000E03000000
22007602000000
1A078206040000
07F8020C080000
02000208100000
02000310200000
02000120400000
020000C1800000
020001FE000000
02000200000000
01000C00000000
00803000000000
0061C000000000
001E0000000000
ENDCHAR
STARTCHAR 00CF
ENCODING 207
SWIDTH 826 0
DWIDTH 43 0
BBX 56 41 10 -4
BITMAP
00000000000063
00000000000042
00000000000000
00000000000000
00000000000078
00000000000780
00000000003900
0000000001C600
0000000F060800
000000F0D81000
00000300202000
00000C00E02000
00001001A04000
00006003208800
00008006210800
0001000C410800
00020018421000
003C0030861000
03CBF021042000
0C100FC2084000
303000FA188000
40200085F70000
80400188380000
80C00130600000
80800340400000
81800280800000
81000301800000
41000E03000000
22007602000000
1A078206040000
07F8020C080000
02000208100000
02000310200000
02000120400000
020000C1800000
020001FE000000
02000200000000
01000C00000000
00803000000000
0061C000000000
001E0000000000
ENDCHAR
STARTCHAR 00D1
ENCODING 209
SWIDTH 942 0
DWIDTH 49 0
BBX 67 41 8 -4
BITMAP
00000000000003E400
000000000000001800
000000000000000000
000000000000000000
0000000000000007E0
000000000000801820
000000000003002040
000000000005004000
0000000E000A018000
00000071800A020000
000003807F12040000
00000401C0E2080000
000018064064100000
0000200840A4100000
0000401080A4200000
000080208124400000
000300010224800000
00FE00010449000000
070DC002048A000000
18083C04090C000000
601003E41608000000
4020001BF810000000
806000102010000000
804000204070000000
808000C080A0000000
8180010080A0000000
410006010120000000
210018020240000000
1200E0040240000000
0FFF00080480000000
040000100880000000
040000200880000000
040000401100000000
040000801200000000
040001002200000000
040002002400000000
02000C001800000000
020030000000000000
0100C0000000000000
00C700000000000000
003800000000000000
ENDCHAR
STARTCHAR 00D2
ENCODING 210
SWIDTH 673 0
DWIDTH 35 0
BBX 37 43 8 -5
BITMAP
0000000040
0000000060
0000000030
0000000000
0000000000
0000000000
00000000F0
00003FC708
0000C03808
0001003018
0002004818
0004008828
0008010848
0008020590
0010040610
0010087810
0000138820
00006C0820
0007C00820
0038C01040
00C1801040
0301001080
0402002100
1806002100
200C004200
200800C400
4018008400
8010010800
8030021000
8020042000
8060082000
8040304000
8040408000
4081810000
208E020000
1FF0040000
0080080000
0080100000
0100200000
0080400000
0081800000
0046000000
0038000000
ENDCHAR
STARTCHAR 00D3
ENCODING 211
SWIDTH 673 0
DWIDTH 35 0
BBX 39 43 8 -4
BITMAP
0000000006
000000000E
0000000018
0000000020
0000000000
0000000000
00000000F0
00003FC708
0000C03808
0001003018
0002004818
0004008828
0008010848
0008020590
0010040610
0010087810
0000138820
00006C0820
0007C00820
0038C01040
00C1801040
0301001080
0402002100
1806002100
200C004200
200800C400
4018008400
8010010800
8030021000
8020042000
8060082000
8040304000
8040408000
4081810000
208E020000
1FF0040000
0080080000
0080100000
0100200000
0080400000
0081800000
0046000000
0038000000
ENDCHAR
STARTCHAR 00D4
ENCODING 212
SWIDTH 673 0
DWIDTH 35 0
BBX 38 44 8 -4
BITMAP
0000000004
000000001C
0000000024
00000000C4
0000000000
0000000000
0000000000
00000000F0
00003FC708
0000C03808
0001003018
0002004818
0004008828
0008010848
0008020590
0010040610
0010087810
0000138820
00006C0820
0007C00820
0038C01040
00C1801040
0301001080
0402002100
1806002100
200C004200
200800C400
4018008400
8010010800
8030021000
8020042000
8060082000
8040304000
8040408000
4081810000
208E020000
1FF0040000
0080080000
0080100000
0100200000
0080400000
0081800000
0046000000
0038000000
ENDCHAR
STARTCHAR 00D5
ENCODING 213
SWIDTH 673 0
DWIDTH 35 0
BBX 40 41 8 -4
BITMAP
000000007D
0000000002
0000000000
0000000000
00000000F0
00003FC708
0000C03808
0001003018
0002004818
0004008828
0008010848
0008020590
0010040610
0010087810
0000138820
00006C0820
0007C00820
0038C01040
00C1801040
0301001080
0402002100
1806002100
200C004200
200800C400
4018008400
8010010800
8030021000
8020042000
8060082000
8040304000
8040408000
4081810000
208E020000
1FF0040000
0080080000
0080100000
0100200000
0080400000
0081800000
0046000000
0038000000
ENDCHAR
STARTCHAR 00D6
ENCODING 214
SWIDTH 673 0
DWIDTH 35 0
BBX 40 42 8 -5
BITMAP
0000000041
00000000C3
0000000082
0000000000
0000000000
00000000F0
00003FC708
0000C03808
0001003018
0002004818
0004008828
0008010848
0008020590
0010040610
0010087810
0000138820
00006C0820
0007C00820
0038C01040
00C1801040
0301001080
0402002100
1806002100
200C004200
200800C400
4018008400
8010010800
8030021000
8020042000
8060082000
8040304000
8040408000
4081810000
208E020000
1FF0040000
0080080000
0080100000
0100200000
0080400000
0081800000
0046000000
0038000000
ENDCHAR
STARTCHAR 00D8
ENCODING 216
SWIDTH 673 0
DWIDTH 35 0
BBX 42 37 8 -4
BITMAP
00000000F040
00003FC70880
0000C0380900
000100301A00
000200481C00
000400883800
000801086800
00080205D000
001004069000
001008791000
0000138A2000
00006C042000
0007C0082000
0038C0104000
00C180304000
030100508000
040200A10000
180601210000
200C02420000
200804440000
401808840000
801031080000
803062100000
802084200000
806108200000
804210400000
804460800000
408981000000
209E02000000
1FE004000000
00C008000000
008010000000
018020000000
028040000000
048180000000
184600000000
003800000000
ENDCHAR
STARTCHAR 00D9
ENCODING 217
SWIDTH 788 0
DWIDTH 41 0
BBX 44 48 9 -13
BITMAP
000000000C00
000000000600
000000000100
000007F80000
000018060000
0000E0020000
000300010000
000C00010000
001000010000
00200F810070
00C0708101A0
018080810220
030300820440
060400820440
0C0800840880
081001081100
10200F982100
104032702200
2080C4604400
208108C08800
410009C08800
420013411000
820026412000
840044824000
840188868000
880211048000
4804210D0000
4818620A0000
306042140000
0F8084180000
100188300000
100110300000
100210600000
100220400000
100241C00000
100482C00000
100504800000
080608800000
041A30800000
03E1C0800000
000000800000
000000800000
000000800000
000000800800
000000801000
000000402000
00000020C000
0000001F0000
ENDCHAR
STARTCHAR 00DA
ENCODING 218
SWIDTH 788 0
DWIDTH 41 0
BBX 44 48 9 -13
BITMAP
000000000070
0000000000C0
000000000000
000007F80000
000018060000
0000E0020000
000300010000
000C00010000
001000010000
00200F810070
00C0708101A0
018080810220
030300820440
060400820440
0C0800840880
081001081100
10200F982100
104032702200
2080C4604400
208108C08800
410009C08800
420013411000
820026412000
840044824000
840188868000
880211048000
4804210D0000
4818620A0000
306042140000
0F8084180000
100188300000
100110300000
100210600000
100220400000
100241C00000
100482C00000
100504800000
080608800000
041A30800000
03E1C0800000
000000800000
000000800000
000000800000
000000800800
000000801000
000000402000
00000020C000
0000001F0000
ENDCHAR
STARTCHAR 00DB
ENCODING 219
SWIDTH 788 0
DWIDTH 41 0
BBX 44 50 9 -13
BITMAP
000000000020
0000000000E0
000000000120
000000000620
000000000020
000007F80000
000018060000
0000E0020000
000300010000
000C00010000
001000010000
00200F810070
00C0708101A0
018080810220
030300820440
060400820440
0C0800840880
081001081100
10200F982100
104032702200
2080C4604400
208108C08800
410009C08800
420013411000
820026412000
840044824000
840188868000
880211048000
4804210D0000
4818620A0000
306042140000
0F8084180000
100188300000
100110300000
100210600000
100220400000
100241C00000
100482C00000
100504800000
080608800000
041A30800000
03E1C0800000
000000800000
000000800000
000000800000
000000800800
000000801000
000000402000
00000020C000
0000001F0000
ENDCHAR
STARTCHAR 00DC
ENCODING 220
SWIDTH 788 0
DWIDTH 41 0
BBX 44 47 9 -13
BITMAP
000000000610
000000000430
000007F80000
000018060000
0000E0020000
000300010000
000C00010000
001000010000
00200F810070
00C0708101A0
018080810220
030300820440
060400820440
0C0800840880
081001081100
10200F982100
104032702200
2080C4604400
208108C08800
410009C08800
420013411000
820026412000
840044824000
840188868000
880211048000
4804210D0000
4818620A0000
306042140000
0F8084180000
100188300000
100110300000
100210600000
100220400000
100241C00000
100482C00000
100504800000
080608800000
041A30800000
03E1C0800000
000000800000
000000800000
000000800000
000000800800
000000801000
000000402000
00000020C000
0000001F0000
ENDCHAR
STARTCHAR 00DF
ENCODING 223
SWIDTH 230 0
DWIDTH 12 0
BBX 42 41 -15 -8
BITMAP
000000000780
000000001840
000000002040
000000004080
000000008080
000000010100
000000010200
000000020400
000000040800
000000041000
000000086000
000000108000
000000130000
000000240000
000000480000
000000500000
000000900000
000001100000
000001100000
000002200000
000004200000
000004200000
000008200000
000010200000
000021200000
000026400000
000048400000
000090400000
0000A0800000
000121000000
000242000000
000244000000
000438000000
000800000000
000800000000
001000000000
002000000000
804000000000
818000000000
860000000000
780000000000
ENDCHAR
STARTCHAR 00E0
ENCODING 224
SWIDTH 230 0
DWIDTH 12 0
BBX 16 21 -1 1
BITMAP
0018
001C
0006
0000
0000
0000
003D
0045
0082
0104
0208
0408
0810
1020
1063
20C4
4188
4290
8D20
5140
2080
ENDCHAR
STARTCHAR 00E1
ENCODING 225
SWIDTH 230 0
DWIDTH 12 0
BBX 18 20 -1 1
BITMAP
0000C0
000180
000300
000000
000000
003D00
004500
008200
010400
020800
040800
081000
102000
106300
20C400
418800
429000
8D2000
514000
208000
ENDCHAR
STARTCHAR 00E2
ENCODING 226
SWIDTH 230 0
DWIDTH 12 0
BBX 17 23 -1 0
BITMAP
000080
000180
000280
000C80
001000
000000
000000
000000
003D00
004500
008200
010400
020800
040800
081000
102000
106300
20C400
418800
429000
8D2000
514000
208000
ENDCHAR
STARTCHAR 00E3
ENCODING 227
SWIDTH 230 0
DWIDTH 12 0
BBX 18 20 -1 1
BITMAP
001E00
000340
000080
000000
000000
003D00
004500
008200
010400
020800
040800
081000
102000
106300
20C400
418800
429000
8D2000
514000
208000
ENDCHAR
STARTCHAR 00E4
ENCODING 228
SWIDTH 230 0
DWIDTH 12 0
BBX 18 20 -1 1
BITMAP
001840
0010C0
000000
000000
000000
003D00
004500
008200
010400
020800
040800
081000
102000
106300
20C400
418800
429000
8D2000
514000
208000
ENDCHAR
STARTCHAR 00E5
ENCODING 229
SWIDTH 230 0
DWIDTH 12 0
BBX 18 23 -1 1
BITMAP
0001C0
000240
000440
000880
000500
000200
000000
000000
003D00
004500
008200
010400
020800
040800
081000
102000
106300
20C400
418800
429000
8D2000
514000
208000
ENDCHAR
STARTCHAR 00E6
ENCODING 230
SWIDTH 307 0
DWIDTH 16 0
BBX 20 15 0 0
BITMAP
003A30
0047F0
018720
020E40
040980
0C1E00
182000
304020
204040
408080
438100
850200
988400
A09800
406000
ENDCHAR
STARTCHAR 00E7
ENCODING 231
SWIDTH 173 0
DWIDTH 9 0
BBX 14 23 -1 -10
BITMAP
000C
003C
0064
00C8
0180
0300
0600
0C00
0800
1018
1020
2040
2080
2100
2200
1C00
0000
4000
7C00
0600
0600
0400
F800
ENDCHAR
STARTCHAR 00E8
ENCODING 232
SWIDTH 173 0
DWIDTH 9 0
BBX 12 21 1 0
BITMAP
0080
00C0
0030
0000
0000
0000
0070
0190
0220
0440
0980
1600
3800
2000
4030
8040
8080
8100
8200
8C00
7000
ENDCHAR
STARTCHAR 00E9
ENCODING 233
SWIDTH 173 0
DWIDTH 9 0
BBX 14 21 1 0
BITMAP
000C
000C
0030
0000
0000
0000
0070
0190
0220
0440
0980
1600
3800
2000
4030
8040
8080
8100
8200
8C00
7000
ENDCHAR
STARTCHAR 00EA
ENCODING 234
SWIDTH 173 0
DWIDTH 9 0
BBX 14 22 1 0
BITMAP
0004
001C
0024
0040
0000
0000
0000
0070
0190
0220
0440
0980
1600
3800
2000
4030
8040
8080
8100
8200
8C00
7000
ENDCHAR
STARTCHAR 00EB
ENCODING 235
SWIDTH 173 0
DWIDTH 9 0
BBX 15 20 1 -1
BITMAP
0042
00C2
0000
0000
0000
0070
0190
0220
0440
0980
1600
3800
2000
4030
8040
8080
8100
8200
8C00
7000
ENDCHAR
STARTCHAR 00EC
ENCODING 236
SWIDTH 96 0
DWIDTH 5 0
BBX 9 21 0 1
BITMAP
0600
0300
0080
0000
0000
0000
0080
0100
0200
0400
0400
0800
1000
1180
2100
4200
4400
8400
8800
B000
C000
ENDCHAR
STARTCHAR 00ED
ENCODING 237
SWIDTH 96 0
DWIDTH 5 0
BBX 13 20 0 1
BITMAP
0018
0030
0040
0000
0000
0080
0100
0200
0400
0400
0800
1000
1180
2100
4200
4400
8400
8800
B000
C000
ENDCHAR
STARTCHAR 00EE
ENCODING 238
SWIDTH 96 0
DWIDTH 5 0
BBX 12 23 0 0
BITMAP
0010
0030
0050
0190
0200
0000
0000
0000
0080
0100
0200
0400
0400
0800
1000
1180
2100
4200
4400
8400
8800
B000
C000
ENDCHAR
STARTCHAR 00EF
ENCODING 239
SWIDTH 96 0
DWIDTH 5 0
BBX 13 20 0 0
BITMAP
0218
0610
0000
0000
0000
0080
0100
0200
0400
0400
0800
1000
1180
2100
4200
4400
8400
8800
B000
C000
ENDCHAR
STARTCHAR 00F1
ENCODING 241
SWIDTH 307 0
DWIDTH 16 0
BBX 17 20 3 -1
BITMAP
003800
00C680
000100
000000
000000
038F00
0C9100
10E100
218200
210600
420C00
061800
043080
082100
104200
108400
210800
411000
C22000
01C000
ENDCHAR
STARTCHAR 00F2
ENCODING 242
SWIDTH 211 0
DWIDTH 11 0
BBX 14 21 0 1
BITMAP
0030
0018
0004
0000
0000
0000
001C
0064
0084
0308
0508
0A10
1220
2224
2448
4290
4160
8280
8400
9800
2000
ENDCHAR
STARTCHAR 00F3
ENCODING 243
SWIDTH 211 0
DWIDTH 11 0
BBX 16 20 0 1
BITMAP
0003
0006
0008
0000
0000
001C
0064
0084
0308
0608
0A10
1220
2444
4448
4290
8160
8280
8400
9800
6000
ENDCHAR
STARTCHAR 00F4
ENCODING 244
SWIDTH 211 0
DWIDTH 11 0
BBX 16 23 0 0
BITMAP
0001
0003
0005
0019
0020
0000
0000
0000
001C
0064
0084
0308
0508
0A10
1220
2224
2448
4290
4160
8280
8400
9800
2000
ENDCHAR
STARTCHAR 00F5
ENCODING 245
SWIDTH 211 0
DWIDTH 11 0
BBX 18 20 0 1
BITMAP
003C00
0003C0
000000
000000
000000
001C00
006400
008400
030800
050800
0A1000
122000
222400
244800
429000
416000
828000
840000
980000
200000
ENDCHAR
STARTCHAR 00F6
ENCODING 246
SWIDTH 211 0
DWIDTH 11 0
BBX 17 20 0 1
BITMAP
003080
003180
000000
000000
000000
001C00
006400
008400
030800
050800
0A1000
122000
222400
244800
429000
416000
828000
840000
980000
200000
ENDCHAR
STARTCHAR 00F8
ENCODING 248
SWIDTH 211 0
DWIDTH 11 0
BBX 20 16 -2 -1
BITMAP
000010
0007E0
001880
002100
00C300
014E00
029200
04A440
08C880
089100
13A600
144800
38B000
210000
660000
980000
ENDCHAR
STARTCHAR 00F9
ENCODING 249
SWIDTH 307 0
DWIDTH 16 0
BBX 16 21 4 -1
BITMAP
00C0
0060
0010
0000
0000
0000
0781
0882
1084
210C
4208
8410
0820
1062
3042
2084
4308
8510
8920
9140
6080
ENDCHAR
STARTCHAR 00FA
ENCODING 250
SWIDTH 307 0
DWIDTH 16 0
BBX 16 21 4 -1
BITMAP
0001
0003
0004
0000
0000
0000
0781
0882
1084
210C
4208
8410
0820
1062
3042
2084
4308
8510
8920
9140
6080
ENDCHAR
STARTCHAR 00FB
ENCODING 251
SWIDTH 307 0
DWIDTH 16 0
BBX 16 23 4 -2
BITMAP
0001
0003
0005
0019
0021
0000
0000
0000
0781
0882
1084
210C
4208
8410
0820
1062
3042
2084
4308
8510
8920
9140
6080
ENDCHAR
STARTCHAR 00FC
ENCODING 252
SWIDTH 307 0
DWIDTH 16 0
BBX 17 20 4 -2
BITMAP
002180
006100
000000
000000
000000
078100
088200
108400
210C00
420800
841000
082000
106200
304200
208400
430800
851000
892000
914000
608000
ENDCHAR
STARTCHAR 00FF
ENCODING 255
SWIDTH 288 0
DWIDTH 15 0
BBX 29 37 -8 -19
BITMAP
00000218
00000610
00000000
00000000
00000000
00007020
00018840
000210C0
00041080
00082100
00104200
00108600
00010420
00020840
00041080
000C2100
00082200
0010C400
00114800
000E9000
0000A000
00014000
00018000
00020000
000C0000
00140000
00680000
00880000
03100000
04200000
08400000
30800000
41000000
42000000
84000000
88000000
70000000
ENDCHAR
STARTCHAR 0131
ENCODING 305
SWIDTH 96 0
DWIDTH 5 0
BBX 9 14 0 0
BITMAP
0080
0100
0200
0400
0400
0800
1000
2100
2200
4200
8400
8800
B000
C000
ENDCHAR
STARTCHAR 0152
ENCODING 338
SWIDTH 923 0
DWIDTH 48 0
BBX 58 36 7 -2
BITMAP
000000007800FF00
00000FC1840700C0
0000703604180040
0000801804300040
000100241CC00080
0002004415800300
0004008427800C00
00040102CB007000
000802030A078000
0008041C0E000000
000009E416000000
0000DE0416000000
0007600422000000
0038C00823000000
00C0C00840FC0000
030180085FFC0000
04030011A0000000
0806003700000000
100600291F000000
200C005260C00000
400800B480400000
401800E900400000
401001CA00200000
803007D400200000
402009A400400000
402031C000400000
4040438000400000
2043838000800000
1C7C030000800000
0380030001000000
00800F0002000000
0080110004000000
0080218008000000
0040C0C010000000
00410030E0000000
003E000F00000000
ENDCHAR
STARTCHAR 0153
ENCODING 339
SWIDTH 326 0
DWIDTH 17 0
BBX 21 15 0 0
BITMAP
001E38
0062C8
008510
030620
0504C0
0A0B00
121500
221208
222410
42D820
416040
80C080
864100
984600
603800
ENDCHAR
STARTCHAR 0178
ENCODING 376
SWIDTH 769 0
DWIDTH 40 0
BBX 49 54 5 -18
BITMAP
00000000000380
00000000000600
00000003000800
0000007CE00000
00000180100000
00000E00080000
00001000080000
00006000080000
00008000080100
0001007E080280
00020182080500
000C0602080900
00080802101200
00103004101200
00204004202400
00608018404800
004080EEC09000
00810311809000
00820423012000
01040847014000
0104008D028000
02080109050000
02080212050000
021004220A0000
02100862140000
022010C4180000
02206084300000
01218108200000
00A60208400000
00780210C00000
00400421800000
00200442800000
0020048D000000
00200511000000
001006E2000000
00101B02000000
000E6004000000
00018004000000
00000008080000
00038008300000
00FC7FF1C00000
0700003E000000
08000020000000
30000040000000
40000080000000
40000100000000
80000200000000
80000C00000000
80001000000000
80006000000000
40018000000000
20060000000000
1EF80000000000
01000000000000
ENDCHAR
STARTCHAR 0192
ENCODING 402
SWIDTH 115 0
DWIDTH 6 0
BBX 47 50 -22 -18
BITMAP
00000000001E
000000000022
000000000044
000000000084
000000000108
000000000210
000000000460
000000000880
000000001100
000000001600
000000002800
000000007000
000000004000
000000008000
000000038000
0000000D0000
000000120000
000000260000
0000001D0000
000000080000
000000080000
000000100000
000000200000
000000200000
000000400000
000000800000
000000800000
000001000000
000002000000
000002000000
000004000000
000008000000
000008000000
000010000000
000020000000
000020000000
000040000000
000080000000
000080000000
000100000000
000100000000
000200000000
000400000000
000800000000
001000000000
002000000000
004000000000
008000000000
830000000000
7C0000000000
ENDCHAR
STARTCHAR 02DA
ENCODING 730
SWIDTH 288 0
DWIDTH 15 0
BBX 6 6 6 16
BITMAP
18
24
44
88
90
60
ENDCHAR
STARTCHAR 02DC
ENCODING 732
SWIDTH 403 0
DWIDTH 21 0
BBX 8 2 12 34
BITMAP
F9
06
ENDCHAR
STARTCHAR 2013
ENCODING 8211
SWIDTH 384 0
DWIDTH 20 0
BBX 14 3 7 9
BITMAP
7E00
838C
0070
ENDCHAR
STARTCHAR 2014
ENCODING 8212
SWIDTH 634 0
DWIDTH 33 0
BBX 23 4 10 17
BITMAP
0FC000
707802
800FBC
000040
ENDCHAR
STARTCHAR 2018
ENCODING 8216
SWIDTH 461 0
DWIDTH 24 0
BBX 6 7 22 26
BITMAP
80
C0
60
30
10
08
04
ENDCHAR
STARTCHAR 2019
ENCODING 8217
SWIDTH 173 0
DWIDTH 9 0
BBX 5 6 19 26
BITMAP
08
18
38
20
40
80
ENDCHAR
STARTCHAR 201C
ENCODING 8220
SWIDTH 250 0
DWIDTH 13 0
BBX 7 6 15 26
BITMAP
90
D8
DC
6C
36
12
ENDCHAR
STARTCHAR 201D
ENCODING 8221
SWIDTH 480 0
DWIDTH 25 0
BBX 9 6 21 26
BITMAP
0480
0D80
1B00
3600
6C00
9000
ENDCHAR
STARTCHAR 2020
ENCODING 8224
SWIDTH 115 0
DWIDTH 6 0
BBX 21 25 0 0
BITMAP
000100
000200
000200
000400
000800
003808
005010
01A020
03E040
005F80
008000
010000
010000
020000
040000
0C0000
080000
108000
210000
210000
420000
440000
880000
900000
600000
ENDCHAR
STARTCHAR 2022
ENCODING 8226
SWIDTH 96 0
DWIDTH 5 0
BBX 2 2 3 4
BITMAP
C0
C0
ENDCHAR
ENDFONT
